<?xml version="1.0" standalone="yes"?>
<svg xmlns="http://www.w3.org/2000/svg" width="373" height="78">
<path style="fill:#030203; stroke:none;" d="M0 0L0 78L373 78L373 0L0 0z"/>
<path style="fill:#eed9eb; stroke:none;" d="M10 4L9 6L10 4z"/>
<path style="fill:#5ea0c6; stroke:none;" d="M10 5L16 18L17 18L12 5L10 5z"/>
<path style="fill:#eed9eb; stroke:none;" d="M12 5L12 6L65 26L65 25L12 5z"/>
<path style="fill:#2d5fa6; stroke:none;" d="M11 6L21.6373 26.0123L66.9961 42.7145L87 56L87 55C80.1455 51.4986 75.4624 45.9854 72.3133 39C70.8099 35.6651 70.5843 30.5706 67.5671 28.2245C63.3572 24.9511 56.8756 23.7627 52 21.7168C38.7595 16.1608 24.845 9.78673 11 6z"/>
<path style="fill:#5ea0c6; stroke:none;" d="M13 6L14 7L13 6z"/>
<path style="fill:#eed9eb; stroke:none;" d="M10.3333 7.66666L10.6667 8.33334L10.3333 7.66666z"/>
<path style="fill:#5ea0c6; stroke:none;" d="M15 7L16 8L15 7M18 8L19 9L18 8z"/>
<path style="fill:#eed9eb; stroke:none;" d="M11.3333 9.66666L11.6667 10.3333L11.3333 9.66666z"/>
<path style="fill:#5ea0c6; stroke:none;" d="M20.6667 9.33334L21.3333 9.66666L20.6667 9.33334z"/>
<path style="fill:#eed9eb; stroke:none;" d="M219 22C215.514 28.6383 209.069 25.2228 203 27L203 28C208.019 29.8797 213.837 30.7 218.955 28.436C222.35 26.9343 224.653 22.611 221.471 19.6034C218.543 16.8368 210.92 17.1015 207 16L207 14L223 13C214.645 1.082 193.332 17.7247 209.004 20.6713C212.3 21.2911 215.685 21.3846 219 22z"/>
<path style="fill:#5ea0c6; stroke:none;" d="M23 10L24 11L23 10z"/>
<path style="fill:#eed9eb; stroke:none;" d="M162 29L165 29C165.432 15.8265 174.971 26.859 181 29L178 22C193.322 13.4034 168.863 4.23569 163.028 11.6034C160.275 15.0796 161.648 24.7859 162 29M192 10L192 29L194 29L194 10L192 10M251 28L251 27L235 26L235 20C240.202 20.1068 248.815 23.2576 251 17L235 17L235 13L251 13L251 11C246.583 9.69453 237.632 8.4807 233.318 10.6034C229.597 12.4345 229.728 25.744 232.603 28.3071C235.77 31.1299 247.223 29.1164 251 28M12 11L13 12L12 11z"/>
<path style="fill:#5ea0c6; stroke:none;" d="M25.6667 11.3333L26.3333 11.6667L25.6667 11.3333M164 14L171 12L164 14M208 11L209 12L208 11z"/>
<path style="fill:#a83e71; stroke:none;" d="M209 11L209 12L218 12L209 11z"/>
<path style="fill:#5ea0c6; stroke:none;" d="M218 11L219 12L218 11M232 11L233 12L232 11z"/>
<path style="fill:#a83e71; stroke:none;" d="M233 11L232 13L234 13L233 11z"/>
<path style="fill:#5ea0c6; stroke:none;" d="M236 11L236 12L239 12L236 11z"/>
<path style="fill:#a83e71; stroke:none;" d="M239.667 11.3333L240.333 11.6667L239.667 11.3333z"/>
<path style="fill:#5ea0c6; stroke:none;" d="M241 11L241 12L248 12L241 11M28.6667 12.3333L29.3333 12.6667L28.6667 12.3333z"/>
<path style="fill:#eed9eb; stroke:none;" d="M96 47C98.3389 47.9606 106.546 51.5566 101.522 54.9329C91.1414 61.9095 76.2553 44.5429 73 37L72 37C75.6619 49.6823 86.1339 56.8935 99 57L99 58C81.9443 62.0606 65.3059 61.0214 50 52.0486C42.7714 47.811 37.0112 39.2486 29 37L29 38L46 51.5571L65 61C59.8438 62.2895 55.9833 62.8245 57 69L52 70C59.0184 77.3791 84.9837 72.4594 84 61L112 57L112 55L109 54C116.713 43.2765 129.943 35.9652 139.83 27.2855C143.035 24.4719 150.097 20.1158 149.534 15.1489C148.899 9.55266 132.577 14.079 129 14.8071C111.358 18.3986 100.011 29.6711 96 47z"/>
<path style="fill:#a83e71; stroke:none;" d="M163 12L163 27L164 27L167 20L167 19L164 19L165 12L163 12z"/>
<path style="fill:#5ea0c6; stroke:none;" d="M176.667 12.3333L177.333 12.6667L176.667 12.3333z"/>
<path style="fill:#a83e71; stroke:none;" d="M178 12L179 13L178 12z"/>
<path style="fill:#5ea0c6; stroke:none;" d="M179.667 12.3333L180.333 12.6667L179.667 12.3333z"/>
<path style="fill:#a83e71; stroke:none;" d="M192 12L192 27L193 27L192 12z"/>
<path style="fill:#5ea0c6; stroke:none;" d="M206 12L207 13L206 12z"/>
<path style="fill:#eed9eb; stroke:none;" d="M13 13L14 14L13 13z"/>
<path style="fill:#5ea0c6; stroke:none;" d="M31 13L32 14L31 13M146 13L146 14L149 14L146 13z"/>
<path style="fill:#a83e71; stroke:none;" d="M180 13L181 17L182 17L180 13z"/>
<path style="fill:#5ea0c6; stroke:none;" d="M232 13L233 14L232 13z"/>
<path style="fill:#eed9eb; stroke:none;" d="M14 14L15 17L16 17L16 14L14 14z"/>
<path style="fill:#5ea0c6; stroke:none;" d="M33.6667 14.3333L34.3333 14.6667L33.6667 14.3333M137 14L137 15L141 15L137 14z"/>
<path style="fill:#2d5fa6; stroke:none;" d="M105 49L106 52L137.015 27.1929L149 14C126.553 14.0619 120.217 35.6868 105 49z"/>
<path style="fill:#030203; stroke:none;" d="M166 14C167.793 19.3984 176.202 19.3806 178 14L166 14z"/>
<path style="fill:#5ea0c6; stroke:none;" d="M180 14L181 15L180 14z"/>
<path style="fill:#a83e71; stroke:none;" d="M204 14L204 18L205 18L204 14M232 14L232 21L234 21L232 14z"/>
<path style="fill:#5ea0c6; stroke:none;" d="M36 15L37 16L36 15M132.667 15.3333L133.333 15.6667L132.667 15.3333M164 15L165 16L164 15M38.6667 16.3333L39.3333 16.6667L38.6667 16.3333z"/>
<path style="fill:#a83e71; stroke:none;" d="M98 47L104 50L105 50C114.624 41.0006 127.502 28.0038 133 16C115.753 16.7881 99.5519 29.3363 98 47z"/>
<path style="fill:#5ea0c6; stroke:none;" d="M41 17L42 18L41 17M124 17L125 18L124 17M148 17L149 18L148 17M176 19L176 20L182 18L176 19z"/>
<path style="fill:#eed9eb; stroke:none;" d="M16 18C17.9455 24.7535 21.7664 33.3345 28 37L16 18z"/>
<path style="fill:#5ea0c6; stroke:none;" d="M43.6667 18.3333L44.3333 18.6667L43.6667 18.3333M147 18L148 19L147 18z"/>
<path style="fill:#a83e71; stroke:none;" d="M180 18L181 19L180 18z"/>
<path style="fill:#5ea0c6; stroke:none;" d="M206.667 18.3333L207.333 18.6667L206.667 18.3333M235 18L235 19L238 19L235 18M240 18L240 19L248 19L240 18M17 19L18 20L17 19M46.6667 19.3333L47.3333 19.6667L46.6667 19.3333M146 19L147 20L146 19M167 19L167 20L173 20L167 19z"/>
<path style="fill:#a83e71; stroke:none;" d="M173 19L174 22L177 20L173 19M177 19L178 20L177 19M210 19L210 20L216 20L210 19z"/>
<path style="fill:#5ea0c6; stroke:none;" d="M216 19L217 20L216 19M49 20L50 21L49 20M145 20L146 21L145 20M218 20L218 21L221 26L222 26L218 20M18 21L19 22L18 21M51.6667 21.3333L52.3333 21.6667L51.6667 21.3333M143 21L144 22L143 21M173 21L174 22L173 21M232 21L233 22L232 21M53.6667 22.3333L54.3333 22.6667L53.6667 22.3333M142 22L143 23L142 22z"/>
<path style="fill:#a83e71; stroke:none;" d="M175 22L176 23L175 22M232 22L233 23L232 22z"/>
<path style="fill:#5ea0c6; stroke:none;" d="M19 23L20 24L19 23M56.6667 23.3333L57.3333 23.6667L56.6667 23.3333M141 23L142 24L141 23M176 23L178 26L176 23M232 23L232 26L233 26L232 23M59 24L60 25L59 24M140 24L141 25L140 24M20 25L21 26L20 25M61.6667 25.3333L62.3333 25.6667L61.6667 25.3333M139 25L140 26L139 25M64 26L64 27L68 28L68 27L64 26z"/>
<path style="fill:#eed9eb; stroke:none;" d="M66.6667 26.3333L67.3333 26.6667L66.6667 26.3333z"/>
<path style="fill:#5ea0c6; stroke:none;" d="M137 26L138 27L137 26M21 27L22 28L21 27z"/>
<path style="fill:#a83e71; stroke:none;" d="M22 27C24.4683 33.5053 28.7485 34.8059 33.4244 39.2269C43.7348 48.9753 57.1719 59.366 72 60.8009C77.8733 61.3693 84.138 59.4626 90 59C78.0584 45.9245 61.0403 40.6958 45 34.5394C37.5909 31.6957 29.9796 27.7011 22 27z"/>
<path style="fill:#eed9eb; stroke:none;" d="M68 27L69 28L68 27z"/>
<path style="fill:#5ea0c6; stroke:none;" d="M136 27L137 28L136 27M163 27L164 28L163 27M179 27L180 28L179 27M192 27L193 28L192 27M205 27L205 28L213 29L205 27M217 27L218 28L217 27M232 27L233 28L232 27z"/>
<path style="fill:#a83e71; stroke:none;" d="M233 27L234 28L233 27z"/>
<path style="fill:#5ea0c6; stroke:none;" d="M234 27L234 28L248 28L234 27M69.3333 28.6667L69.6667 29.3333L69.3333 28.6667M135 28L136 29L135 28z"/>
<path style="fill:#eed9eb; stroke:none;" d="M70 29L71 36L72 36L70 29z"/>
<path style="fill:#5ea0c6; stroke:none;" d="M134 29L135 30L134 29M132 30L133 31L132 30M70 32L70 35L71 35L70 32M130 32L131 33L130 32M25 33L26 34L25 33M129 33L130 34L129 33M128 34L129 35L128 34M126 35L127 36L126 35z"/>
<path style="fill:#eed9eb; stroke:none;" d="M165 48L166 48L172 51L172 47L173 47C179.034 56.2847 189.107 48.1992 187 39L191 40C191 44.4855 190.053 49.1537 194 52L195 40C202.681 37.447 190.997 31.8348 187 38C181.529 34.9361 176.638 34.1007 173 40C171.712 38.5358 170.665 37.1965 168.885 36.2932C154.587 29.0371 158.993 56.9281 165 48M197 51C203.91 50.1633 213.502 52.9855 218 47L224 51L224 41L227 50C233.862 51.5986 236.287 40.3247 235 35L231 39L229 39L225 35L224 38C213.896 32.2137 213.398 37.9508 210 46C204.862 30.8164 198.755 39.1168 197 51M243 35L242 52L253 51L253 47L257 52L261 52L262 49C268.273 52.8253 279.654 49.531 272 42L272 41L278 40C278.001 45.0228 277.043 50.0059 283 51C283.013 46.4321 282.731 42.4942 287 40C287 44.5037 285.861 50.938 292 50L292 40L300 51L304 40C304.049 53.8225 317.883 53.9587 318 40L321 40C321 41.7631 321.181 56.2323 325.977 50.3773C327.847 48.0936 327.317 42.8694 328 40L329 40C331.4 50.0752 331.895 52.1546 343 51L340 46L340 40L343 38L343 37C337.84 34.2464 319.718 32.5676 314.517 36.0772C312.524 37.4217 312.463 40.2733 311 42L313 45L309 45C310.656 30.0731 285.661 34.2221 275.17 35.5008C270.116 36.1167 265.93 33.6864 263 39L262 39C259.906 35.3555 257.705 35.9748 257 40L249 35L248 39L243 35z"/>
<path style="fill:#5ea0c6; stroke:none;" d="M28 36L28 37L31 37L28 36M71.3333 36.6667L71.6667 37.3333L71.3333 36.6667M125 36L126 37L125 36M161 36L162 37L161 36M178 36L179 37L178 36z"/>
<path style="fill:#a83e71; stroke:none;" d="M179.015 36.8665C170.595 38.23 172.265 51.1834 180.985 49.7022C189.493 48.2569 187.196 35.5416 179.015 36.8665z"/>
<path style="fill:#5ea0c6; stroke:none;" d="M234 36L235 37L234 36z"/>
<path style="fill:#a83e71; stroke:none;" d="M271 45L271 48L264 47C266.182 50.3647 274.504 50.9897 273.029 45.2083C272.336 42.4922 267.856 40.9673 266 39L272 39C267.312 32.4534 259.145 43.6675 271 45M276 38L279 39C279.092 43.0879 278.327 47.5771 282 50L285 37L276 38z"/>
<path style="fill:#5ea0c6; stroke:none;" d="M319 36L320 37L319 36M32 37L33 38L32 37M124 37L125 38L124 37z"/>
<path style="fill:#a83e71; stroke:none;" d="M161 37L161 50L163 50L163 46L171 50C169.388 41.522 171.689 37.0378 161 37z"/>
<path style="fill:#5ea0c6; stroke:none;" d="M183 37L184 38L183 37z"/>
<path style="fill:#a83e71; stroke:none;" d="M188 37L188 38C192.636 40.8435 191.999 45.0176 192 50L194 50L194 39L198 39L198 37L188 37M203 37L198 50L210 50L205 37L203 37M213 37C212.804 41.5676 210.883 46.8629 215 50L216 45L222 49C221.758 40.6782 223.072 37.0356 213 37M225 37L229 50L231 50L235 37L231 42L229 42L225 37M243 37L243 50L244 50C246.062 45.7158 247.404 40.1112 243 37M249 37C247.939 41.4588 246.963 46.9268 251 50L251 42L257 50L260 50L260 37L258 37L258 45L249 37z"/>
<path style="fill:#5ea0c6; stroke:none;" d="M275 37L276 38L275 37M285.333 37.6667L285.667 38.3333L285.333 37.6667z"/>
<path style="fill:#a83e71; stroke:none;" d="M288 37L288 50L290 50L290 37L288 37z"/>
<path style="fill:#5ea0c6; stroke:none;" d="M290.333 37.6667L290.667 38.3333L290.333 37.6667z"/>
<path style="fill:#a83e71; stroke:none;" d="M293 37L293 39L297 39L297 50L299 50L303 37L293 37z"/>
<path style="fill:#5ea0c6; stroke:none;" d="M305 37L306 38L305 37z"/>
<path style="fill:#a83e71; stroke:none;" d="M306 37C305.489 38.7323 305.053 40.19 305.078 42.0247C305.29 57.7565 323.815 44.7325 314 37C313.999 38.8426 313.22 51.3723 309.023 45.6235C307.162 43.0743 308.01 39.653 306 37z"/>
<path style="fill:#5ea0c6; stroke:none;" d="M307 37L308 38L307 37z"/>
<path style="fill:#a83e71; stroke:none;" d="M319 37L322 39L325 49L325 39L329 39L329 37L319 37M332 50L341 50L341 48L334 48L341 44L341 42L334 42L334 39L341 38C330.827 33.7323 331.995 43.0051 332 50z"/>
<path style="fill:#5ea0c6; stroke:none;" d="M123 38L124 39L123 38M170 38L171 39L170 38M188.667 38.3333L189.333 38.6667L188.667 38.3333M222 38L223 39L222 38M227 38L228 39L227 38M245 38L246 39L245 38M272 38L273 39L272 38M316 38L317 39L316 38M331 38L332 39L331 38M340 38L341 39L340 38M72 39L73 40L72 39M122 39L123 40L122 39z"/>
<path style="fill:#eed9eb; stroke:none;" d="M163 39L163 43L169 42L163 39M178.314 40.0864C174.358 42.3417 177.461 49.3221 181.686 46.9136C185.642 44.6583 182.539 37.6779 178.314 40.0864M215 39L215 43L221 42L221 40L215 39z"/>
<path style="fill:#5ea0c6; stroke:none;" d="M263 39L264 40L263 39M325 39L326 40L325 39M120 40L121 41L120 40z"/>
<path style="fill:#030203; stroke:none;" d="M165 40L165 42L167 42L167 40L165 40M179.278 41.3449C176.762 42.3411 178.088 46.6985 180.722 45.6551C183.238 44.6589 181.912 40.3014 179.278 41.3449M217 40L217 42L219 42L217 40z"/>
<path style="fill:#5ea0c6; stroke:none;" d="M290 40L291 41L290 40M331.333 40.6667L331.667 41.3333L331.333 40.6667M73 41L74 42L73 41M119 41L120 42L119 41M186 41L187 42L186 41M229.667 41.3333L230.333 41.6667L229.667 41.3333M316 41L316 45L317 45L316 41M118 42L119 43L118 42M200 42L201 43L200 42z"/>
<path style="fill:#eed9eb; stroke:none;" d="M203 42L206 45L203 42z"/>
<path style="fill:#5ea0c6; stroke:none;" d="M227 42L228 43L227 42M232 42L233 43L232 42z"/>
<path style="fill:#030203; stroke:none;" d="M262 42L262 47L265 46L262 42z"/>
<path style="fill:#5ea0c6; stroke:none;" d="M74 43L75 44L74 43M117 43L118 44L117 43M260 43L261 44L260 43z"/>
<path style="fill:#eed9eb; stroke:none;" d="M264 43L265 44L264 43z"/>
<path style="fill:#5ea0c6; stroke:none;" d="M116 44L117 45L116 44M253 44L254 45L253 44M279.333 44.6667L279.667 45.3333L279.333 44.6667M322 44L323 45L322 44M335 44L336 45L335 44M75 45L76 46L75 45M114 45L115 46L114 45M76 46L77 47L76 46M97 46L98 47L97 46M113 46L114 47L113 46M166 46L167 47L166 46M169 46L170 47L169 46M173 46L174 47L173 46M313 46L314 47L313 46M322 46L323 47L322 46M77 47L78 48L77 47M112 47L113 48L112 47M212.333 47.6667L212.667 48.3333L212.333 47.6667M245.333 47.6667L245.667 48.3333L245.333 47.6667M273 47L274 48L273 47M78 48L78 50L80 50L78 48M111 48L112 49L111 48M184 48L185 49L184 48M306 48L307 49L306 48M110 49L111 50L110 49M183 49L184 50L183 49M220 49L221 50L220 49z"/>
<path style="fill:#2d5fa6; stroke:none;" d="M221 49L222 50L221 49z"/>
<path style="fill:#5ea0c6; stroke:none;" d="M222 49L223 50L222 49z"/>
<path style="fill:#2d5fa6; stroke:none;" d="M244 49L245 50L244 49z"/>
<path style="fill:#5ea0c6; stroke:none;" d="M260 49L261 50L260 49M307 49L308 50L307 49z"/>
<path style="fill:#2d5fa6; stroke:none;" d="M323.667 49.3333L324.333 49.6667L323.667 49.3333z"/>
<path style="fill:#5ea0c6; stroke:none;" d="M105.333 50.6667L105.667 51.3333L105.333 50.6667M108 50L109 51L108 50M81 51L82 52L81 51M107 51L108 52L107 51M82 52L83 53L82 52M106 52L107 53L106 52M83 53L84 54L83 53M85 54L86 55L85 54M87 55L88 56L87 55M104 55L105 56L104 55z"/>
<path style="fill:#2d5fa6; stroke:none;" d="M104 56L104 57L108 56L104 56z"/>
<path style="fill:#5ea0c6; stroke:none;" d="M107 56L107 57L111 57L107 56z"/>
<path style="fill:#2d5fa6; stroke:none;" d="M88 56L88 57L94 58L94 57L88 56z"/>
<path style="fill:#5ea0c6; stroke:none;" d="M90.6667 56.3333L91.3333 56.6667L90.6667 56.3333M90 58L90 59L99 58L90 58z"/>
<path style="fill:#eed9eb; stroke:none;" d="M165 64L159 74C163.393 75.2985 169.234 76.2666 172 72C177.273 75.6622 182.678 76.3493 186 70L189 71L189 61L198 68L198 61L200 61L200 75L201 75L201 71L202 71C203.738 76.237 209.31 75 214 75C213.997 71.0129 214.598 67.3323 211 65L211 64C217.072 59.9817 206.919 57.3018 203.603 60.6034C201.718 62.4806 202.029 65.5754 202 68L201 68L200 59L198 59L197 65C193.369 62.0624 189.562 57.6191 187 64L186 64C182.583 57.4895 176.963 59.0385 172 63C167.187 54.2709 154.602 63.1694 165 64M226 64L221 74L222 74L227 62L222 64C223.555 61.3689 229.751 58.7283 229.794 64.0949C229.816 66.8385 226.245 69.6493 225 72L231 72L231 74L223 74L223 75C230.155 74.9763 238.942 75.9976 245 72L250 75L250 74L247 74L253 66L252 62L247 64C248.555 61.3689 254.751 58.7283 254.794 64.0949C254.816 66.8385 251.245 69.6493 250 72L256 72L256 74L252 74L252 75L257 73L258 73C272.013 83.603 271.287 49.6259 257 62C252.174 57.4821 236.352 58.1703 232 63C226.421 54.4172 218.224 65.1983 226 64z"/>
<path style="fill:#a83e71; stroke:none;" d="M177.185 60.7863C168.903 63.8213 173.631 76.7982 181.867 73.1373C188.969 69.9801 184.528 58.0956 177.185 60.7863z"/>
<path style="fill:#5ea0c6; stroke:none;" d="M224 60L225 61L224 60z"/>
<path style="fill:#a83e71; stroke:none;" d="M222 64L227 62L228 66C223.823 67.5023 222.49 69.6394 222 74L231 74L231 72L225 72C226.644 69.814 230.336 67.0336 230.248 64.0694C230.081 58.3929 223.688 61.1197 222 64M237.185 60.8511C230.747 62.9039 232.828 75.6146 239.895 73.338C246.265 71.2859 244.235 58.6034 237.185 60.8511z"/>
<path style="fill:#5ea0c6; stroke:none;" d="M249.667 60.3333L250.333 60.6667L249.667 60.3333z"/>
<path style="fill:#a83e71; stroke:none;" d="M247 64L252 62L253 66C248.949 67.6604 247.494 69.6601 247 74L256 74L256 72L250 72C251.498 70.0077 254.755 67.5028 255.079 64.9306C255.804 59.1892 248.897 60.9136 247 64M259 63L265 63L265 65L261 67L265 72L259 71C268.429 85.5314 268.666 49.5032 259 63z"/>
<path style="fill:#5ea0c6; stroke:none;" d="M264 60L265 61L264 60z"/>
<path style="fill:#a83e71; stroke:none;" d="M161 61L161 62L167 63L161 74L171 74L171 72L165 72L171 61L161 61M189 61L189 74L191 74L191 66L200 74L200 61L198 61L198 68L189 61z"/>
<path style="fill:#5ea0c6; stroke:none;" d="M203.333 61.6667L203.667 62.3333L203.333 61.6667z"/>
<path style="fill:#a83e71; stroke:none;" d="M203 74L213 73L213 72L206 72L206 68L213 68L213 66L206 66L206 63L212 63L212 61C202.522 61.0336 203 65.6815 203 74z"/>
<path style="fill:#5ea0c6; stroke:none;" d="M212 61L213 62L212 61M222 61L223 62L222 61M247 61L248 62L247 61M254 61L255 62L254 61M161 62L162 63L161 62M170 62L171 63L170 62M174 62L175 63L174 62M225 62L226 63L225 62M230 62L231 63L230 62M234 62L235 63L234 62M238.667 62.3333L239.333 62.6667L238.667 62.3333M255 62L256 63L255 62M261 62L262 63L261 62z"/>
<path style="fill:#eed9eb; stroke:none;" d="M170 63L165 72L171 72L171 71L167 70L170 63z"/>
<path style="fill:#030203; stroke:none;" d="M171.333 63.6667L171.667 64.3333L171.333 63.6667z"/>
<path style="fill:#5ea0c6; stroke:none;" d="M173 63L174 64L173 63z"/>
<path style="fill:#eed9eb; stroke:none;" d="M177.314 64.0471C173.487 66.46 176.414 73.3329 180.687 70.9136C184.835 68.5649 181.94 61.1304 177.314 64.0471z"/>
<path style="fill:#5ea0c6; stroke:none;" d="M188 63L188 67L189 67L188 63z"/>
<path style="fill:#eed9eb; stroke:none;" d="M237 72C241.387 70.5441 240.985 67.1504 241 63C235.669 63.8896 235.916 67.3814 237 72z"/>
<path style="fill:#030203; stroke:none;" d="M257 63L253 71L261 70L261 65L257 63z"/>
<path style="fill:#5ea0c6; stroke:none;" d="M58 64L58 67L64 67L64 68L54 70L54 71C64.8437 75.7983 73.8219 68.9544 84 65L58 64z"/>
<path style="fill:#030203; stroke:none;" d="M177.767 65.0818C175.497 66.8305 177.996 70.743 180.421 68.9182C182.76 67.1588 180.161 63.2376 177.767 65.0818M209 64L210 65L209 64z"/>
<path style="fill:#eed9eb; stroke:none;" d="M70.6667 65.3333L71.3333 65.6667L70.6667 65.3333z"/>
<path style="fill:#5ea0c6; stroke:none;" d="M168 65L169 66L168 65z"/>
<path style="fill:#030203; stroke:none;" d="M170 65L167 70L172 72L170 65z"/>
<path style="fill:#5ea0c6; stroke:none;" d="M194 65L195 66L194 65M227 65L228 66L227 65z"/>
<path style="fill:#030203; stroke:none;" d="M237 66L237 67L240 68L240 65L237 66M245 65L245 71L246 71L249 66L245 65z"/>
<path style="fill:#5ea0c6; stroke:none;" d="M262.667 65.3333L263.333 65.6667L262.667 65.3333z"/>
<path style="fill:#eed9eb; stroke:none;" d="M64 66L64 67L69 67L64 66M191 66L191 74L192 74L191 66z"/>
<path style="fill:#5ea0c6; stroke:none;" d="M195 66L196 67L195 66z"/>
<path style="fill:#eed9eb; stroke:none;" d="M260 66L261 70L259 69L259 70L265 72L260 66z"/>
<path style="fill:#5ea0c6; stroke:none;" d="M249 67L250 68L249 67M166 68L167 69L166 68M188 68L189 69L188 68M193 68L194 69L193 68M227 68L228 69L227 68z"/>
<path style="fill:#030203; stroke:none;" d="M231 68L228 70C230.24 70.5618 232.22 70.7195 231 68z"/>
<path style="fill:#5ea0c6; stroke:none;" d="M252 68L253 69L252 68M165 69L166 70L165 69M247 69L248 70L247 69z"/>
<path style="fill:#eed9eb; stroke:none;" d="M194 70L195 71L194 70z"/>
<path style="fill:#030203; stroke:none;" d="M208.667 70.3333L209.333 70.6667L208.667 70.3333z"/>
<path style="fill:#5ea0c6; stroke:none;" d="M243 70L244 71L243 70M188.333 71.6667L188.667 72.3333L188.333 71.6667z"/>
<path style="fill:#eed9eb; stroke:none;" d="M195 71L197 74L195 71z"/>
<path style="fill:#5ea0c6; stroke:none;" d="M260 71L261 72L260 71M160 72L161 73L160 72M183 72L184 73L183 72M242 72L243 73L242 72M258 72L259 73L258 72z"/>
<path style="fill:#eed9eb; stroke:none;" d="M188 73L191 75L191 74L188 73z"/>
<path style="fill:#5ea0c6; stroke:none;" d="M212 73L213 74L212 73z"/>
<path style="fill:#eed9eb; stroke:none;" d="M197.667 74.3333L198.333 74.6667L197.667 74.3333z"/>
</svg>
