<?xml version="1.0" encoding="iso-8859-1"?>
<!-- Generator: Adobe Illustrator 19.0.0, SVG Export Plug-In . SVG Version: 6.00 Build 0)  -->
<svg version="1.1" id="Layer_1" xmlns="http://www.w3.org/2000/svg" xmlns:xlink="http://www.w3.org/1999/xlink" x="0px" y="0px"
	 viewBox="0 0 580.471 464.977" style="enable-background:new 0 0 580.471 464.977;" xml:space="preserve">
<g>
	<defs>
		<rect id="SVGID_1_" x="-88.606" y="-165.102" width="800" height="800"/>
	</defs>
	<clipPath id="SVGID_2_">
		<use xlink:href="#SVGID_1_"  style="overflow:visible;"/>
	</clipPath>
	<path style="clip-path:url(#SVGID_2_);fill:#0D4C94;" d="M145.83,316.845c-1.923,0.576-4.949,1.153-9.078,1.729
		c-4.132,0.576-8.406,0.864-12.822,0.864c-4.228,0-8.024-0.288-11.383-0.864c-3.363-0.576-6.195-1.729-8.5-3.458
		c-2.305-1.729-4.084-4.079-5.331-7.06c-1.252-2.976-1.873-6.866-1.873-11.67v-86.448c0-4.417,0.815-8.213,2.449-11.382
		c1.63-3.169,3.985-6.002,7.06-8.501c3.071-2.494,6.867-4.754,11.382-6.771c4.512-2.017,9.365-3.791,14.553-5.331
		c5.186-1.536,10.562-2.738,16.136-3.602c5.57-0.865,11.14-1.297,16.714-1.297c9.22,0,16.519,1.778,21.9,5.331
		c5.376,3.557,8.068,9.365,8.068,17.434c0,2.692-0.387,5.331-1.153,7.924c-0.77,2.594-1.729,4.948-2.882,7.06
		c-4.033,0-8.167,0.193-12.39,0.576c-4.228,0.387-8.357,0.964-12.391,1.729c-4.034,0.77-7.83,1.585-11.382,2.449
		c-3.557,0.865-6.583,1.873-9.077,3.026V316.845z"/>
	<path style="clip-path:url(#SVGID_2_);fill:#0D4C94;" d="M265.413,316.845c-2.116,0.382-5.236,0.909-9.365,1.585
		c-4.133,0.671-8.311,1.008-12.535,1.008c-4.228,0-8.023-0.288-11.382-0.864c-3.363-0.576-6.195-1.729-8.501-3.458
		c-2.305-1.729-4.083-4.079-5.331-7.06c-1.252-2.976-1.873-6.866-1.873-11.67V179.105c2.112-0.383,5.233-0.909,9.365-1.585
		c4.129-0.67,8.307-1.008,12.535-1.008c4.223,0,8.019,0.288,11.382,0.864c3.359,0.577,6.196,1.729,8.501,3.459
		c2.306,1.728,4.08,4.083,5.331,7.059c1.247,2.981,1.873,6.871,1.873,11.671V316.845z"/>
	<path style="clip-path:url(#SVGID_2_);fill:#0D4C94;" d="M414.679,275.351c0,14.601-5.475,26.034-16.425,34.291
		c-10.95,8.258-27.087,12.391-48.41,12.391c-8.069,0-15.561-0.577-22.477-1.729c-6.915-1.153-12.823-2.931-17.721-5.331
		c-4.899-2.4-8.744-5.426-11.527-9.077c-2.786-3.647-4.178-7.969-4.178-12.967c0-4.61,0.96-8.501,2.881-11.67
		c1.919-3.17,4.224-5.809,6.917-7.925c5.569,3.075,11.958,5.813,19.162,8.212c7.204,2.405,15.511,3.603,24.926,3.603
		c5.952,0,10.517-0.865,13.687-2.594c3.17-1.729,4.755-4.034,4.755-6.916c0-2.687-1.153-4.799-3.458-6.339
		c-2.305-1.535-6.151-2.782-11.526-3.746l-8.645-1.729c-16.713-3.265-29.154-8.402-37.316-15.416
		c-8.168-7.011-12.247-17.047-12.247-30.113c0-7.105,1.535-13.543,4.61-19.307c3.071-5.763,7.393-10.562,12.967-14.408
		c5.57-3.84,12.247-6.817,20.028-8.933c7.78-2.111,16.375-3.169,25.79-3.169c7.104,0,13.782,0.531,20.027,1.585
		c6.239,1.058,11.67,2.642,16.28,4.754c4.611,2.117,8.258,4.854,10.95,8.213c2.688,3.363,4.035,7.348,4.035,11.958
		c0,4.421-0.82,8.212-2.45,11.382c-1.635,3.17-3.701,5.813-6.195,7.925c-1.54-0.959-3.846-1.967-6.916-3.026
		c-3.075-1.053-6.438-2.017-10.086-2.881c-3.651-0.865-7.348-1.585-11.093-2.161c-3.747-0.577-7.159-0.865-10.23-0.865
		c-6.34,0-11.239,0.72-14.697,2.161c-3.457,1.441-5.186,3.701-5.186,6.772c0,2.116,0.959,3.845,2.881,5.187
		c1.918,1.346,5.57,2.593,10.95,3.746l8.933,2.017c18.442,4.228,31.554,10.04,39.334,17.433
		C410.789,254.077,414.679,263.636,414.679,275.351"/>
	<path style="clip-path:url(#SVGID_2_);fill:#0D4C94;" d="M513.798,321.744c-11.336,0-21.854-1.585-31.552-4.754
		c-9.703-3.17-18.155-7.924-25.358-14.264c-7.205-6.339-12.873-14.308-17.002-23.917c-4.133-9.604-6.195-20.842-6.195-33.715
		c0-12.678,2.062-23.579,6.195-32.705c4.129-9.122,9.555-16.614,16.282-22.477c6.722-5.858,14.407-10.18,23.052-12.967
		c8.645-2.783,17.479-4.179,26.51-4.179c10.18,0,19.451,1.54,27.808,4.611c8.356,3.075,15.56,7.303,21.611,12.679
		c6.052,5.381,10.756,11.815,14.12,19.307c3.359,7.492,5.043,15.66,5.043,24.493c0,6.534-1.828,11.527-5.475,14.985
		c-3.652,3.458-8.744,5.668-15.272,6.628L482.39,266.13c2.111,6.339,6.434,11.094,12.966,14.264
		c6.529,3.17,14.021,4.755,22.477,4.755c7.875,0,15.317-1.009,22.332-3.026c7.01-2.017,12.724-4.368,17.146-7.06
		c3.07,1.922,5.663,4.611,7.78,8.068c2.111,3.458,3.17,7.11,3.17,10.95c0,8.645-4.035,15.084-12.103,19.307
		c-6.151,3.269-13.066,5.475-20.747,6.628C527.725,321.169,520.521,321.744,513.798,321.744 M505.73,208.498
		c-4.61,0-8.599,0.771-11.958,2.306c-3.364,1.539-6.101,3.507-8.213,5.907c-2.116,2.404-3.7,5.092-4.754,8.068
		c-1.058,2.981-1.684,6.007-1.874,9.077l49.276-8.068c-0.577-3.841-2.693-7.681-6.339-11.527
		C518.215,210.421,512.835,208.498,505.73,208.498"/>
</g>
<g>
	<defs>
		<path id="SVGID_3_" d="M221.72,120.022c-45.584,3.733-77.219-60.749-77.219-60.749L11.004,20.862
			C83.851,146.015,221.72,120.022,221.72,120.022"/>
	</defs>
	<clipPath id="SVGID_4_">
		<use xlink:href="#SVGID_3_"  style="overflow:visible;"/>
	</clipPath>
	
		<linearGradient id="SVGID_5_" gradientUnits="userSpaceOnUse" x1="-88.606" y1="634.8781" x2="-87.606" y2="634.8781" gradientTransform="matrix(542.5916 -251.0863 -251.0863 -542.5916 207502.4219 322361.5313)">
		<stop  offset="0" style="stop-color:#3788C9"/>
		<stop  offset="0.8247" style="stop-color:#3788C9"/>
		<stop  offset="1" style="stop-color:#B0459A"/>
	</linearGradient>
	<polygon style="clip-path:url(#SVGID_4_);fill:url(#SVGID_5_);" points="-36.696,42.935 184.555,-59.45 269.42,123.941 
		48.169,226.327 	"/>
</g>
<g>
	<defs>
		<path id="SVGID_6_" d="M222.114,119.886c-45.068,7.698-83.018-54.62-83.018-54.62L11.004,20.862
			C83.824,158.228,222.114,119.886,222.114,119.886"/>
	</defs>
	<clipPath id="SVGID_7_">
		<use xlink:href="#SVGID_6_"  style="overflow:visible;"/>
	</clipPath>
	
		<linearGradient id="SVGID_8_" gradientUnits="userSpaceOnUse" x1="-88.606" y1="634.8082" x2="-87.606" y2="634.8082" gradientTransform="matrix(201.4302 -16.8311 -16.8311 -201.4302 28549.873 126476.0156)">
		<stop  offset="0" style="stop-color:#3788C9"/>
		<stop  offset="0.4768" style="stop-color:#8355A2"/>
		<stop  offset="0.7139" style="stop-color:#9B489B"/>
		<stop  offset="1" style="stop-color:#B0459A"/>
	</linearGradient>
	<polygon style="clip-path:url(#SVGID_7_);fill:url(#SVGID_8_);" points="-0.394,21.814 220.65,3.344 233.512,157.275 
		12.468,175.745 	"/>
</g>
<g>
	<defs>
		<path id="SVGID_9_" d="M219.216,62.786c0,0-9.846,33.496-9.855,33.521c0.186-0.63,4.837-0.74,5.356-0.754
			c7.649-0.21,13.785,4.502,14.948,12.089l98.732-96.304C328.397,11.338,256.736,16.711,219.216,62.786"/>
	</defs>
	<clipPath id="SVGID_10_">
		<use xlink:href="#SVGID_9_"  style="overflow:visible;"/>
	</clipPath>
	
		<linearGradient id="SVGID_11_" gradientUnits="userSpaceOnUse" x1="-88.606" y1="634.9046" x2="-87.606" y2="634.9046" gradientTransform="matrix(125.2606 -10.4665 -10.4665 -125.2606 17950.8008 78665.8125)">
		<stop  offset="0" style="stop-color:#3788C9"/>
		<stop  offset="0.4768" style="stop-color:#8355A2"/>
		<stop  offset="0.7139" style="stop-color:#9B489B"/>
		<stop  offset="1" style="stop-color:#B0459A"/>
	</linearGradient>
	<polygon style="clip-path:url(#SVGID_10_);fill:url(#SVGID_11_);" points="201.37,12.006 327.572,1.46 336.388,106.974 
		210.186,117.519 	"/>
</g>
<g>
	<defs>
		<path id="SVGID_12_" d="M82.047,142.749c0,0,17.549,7.136,40.687,2.42l51.028-10.083L82.047,142.749z"/>
	</defs>
	<clipPath id="SVGID_13_">
		<use xlink:href="#SVGID_12_"  style="overflow:visible;"/>
	</clipPath>
	
		<linearGradient id="SVGID_14_" gradientUnits="userSpaceOnUse" x1="-88.606" y1="634.8937" x2="-87.606" y2="634.8937" gradientTransform="matrix(91.7154 -7.6636 -7.6636 -91.7154 13074.416 57696.7734)">
		<stop  offset="0" style="stop-color:#9B3493"/>
		<stop  offset="1" style="stop-color:#D84097"/>
	</linearGradient>
	<polygon style="clip-path:url(#SVGID_13_);fill:url(#SVGID_14_);" points="80.819,135.188 173.126,127.475 174.99,149.782 
		82.683,157.495 	"/>
</g>
<g>
	<defs>
		<path id="SVGID_15_" d="M173.762,135.086l-74.937,32.829l29.462-4.738c0,0,13.003-1.846,22.341-8.193l37.96-21.138
			L173.762,135.086z"/>
	</defs>
	<clipPath id="SVGID_16_">
		<use xlink:href="#SVGID_15_"  style="overflow:visible;"/>
	</clipPath>
	
		<linearGradient id="SVGID_17_" gradientUnits="userSpaceOnUse" x1="-88.606" y1="634.8979" x2="-87.606" y2="634.8979" gradientTransform="matrix(91.9667 -7.6846 -7.6846 -91.9667 13125.4229 57863.2578)">
		<stop  offset="0" style="stop-color:#9B3493"/>
		<stop  offset="1" style="stop-color:#D84097"/>
	</linearGradient>
	<polygon style="clip-path:url(#SVGID_16_);fill:url(#SVGID_17_);" points="95.998,134.082 187.966,126.397 191.415,167.679 
		99.447,175.363 	"/>
</g>
<g>
	<defs>
		<path id="SVGID_18_" d="M226.925,117.233l16.834-4.443l-15.894-2.468C227.865,110.322,223.887,114.198,226.925,117.233"/>
	</defs>
	<clipPath id="SVGID_19_">
		<use xlink:href="#SVGID_18_"  style="overflow:visible;"/>
	</clipPath>
	
		<linearGradient id="SVGID_20_" gradientUnits="userSpaceOnUse" x1="-88.606" y1="634.8683" x2="-87.606" y2="634.8683" gradientTransform="matrix(18.0176 -1.5055 -1.5055 -18.0176 2778.0251 11419.8545)">
		<stop  offset="0" style="stop-color:#3788C9"/>
		<stop  offset="0.4768" style="stop-color:#8355A2"/>
		<stop  offset="0.7139" style="stop-color:#9B489B"/>
		<stop  offset="1" style="stop-color:#B0459A"/>
	</linearGradient>
	<polygon style="clip-path:url(#SVGID_19_);fill:url(#SVGID_20_);" points="223.314,110.37 243.621,108.673 244.332,117.185 
		224.025,118.882 	"/>
</g>
<g>
	<defs>
		<rect id="SVGID_21_" x="96.843" y="340.341" width="477.469" height="31.956"/>
	</defs>
	<clipPath id="SVGID_22_">
		<use xlink:href="#SVGID_21_"  style="overflow:visible;"/>
	</clipPath>
	
		<linearGradient id="SVGID_23_" gradientUnits="userSpaceOnUse" x1="-88.606" y1="634.8978" x2="-87.606" y2="634.8978" gradientTransform="matrix(477.4691 0 0 -477.4691 42403.4531 303500.4063)">
		<stop  offset="0" style="stop-color:#9B3493"/>
		<stop  offset="1" style="stop-color:#D84097"/>
	</linearGradient>
	<rect x="96.843" y="340.341" style="clip-path:url(#SVGID_22_);fill:url(#SVGID_23_);" width="477.469" height="31.956"/>
</g>
<polygon style="fill:#FFFFFF;" points="111.057,350.632 104.441,350.632 104.441,346.733 122.459,346.733 122.459,350.632 
	115.843,350.632 115.843,367.409 111.057,367.409 "/>
<path style="fill:#FFFFFF;" d="M144.109,367.409l-3.988-5.76h-0.236h-4.165v5.76h-4.785v-20.676h8.95
	c5.523,0,8.979,2.865,8.979,7.503c0,3.101-1.566,5.375-4.254,6.527l4.638,6.646H144.109z M139.619,350.632h-3.899v7.207h3.899
	c2.924,0,4.401-1.359,4.401-3.603C144.02,351.961,142.543,350.632,139.619,350.632"/>
<path style="fill:#FFFFFF;" d="M172.168,362.978h-9.6l-1.831,4.431h-4.903l9.215-20.677h4.726l9.245,20.677h-5.021L172.168,362.978z
	 M170.661,359.345l-3.278-7.916l-3.279,7.916H170.661z"/>
<polygon style="fill:#FFFFFF;" points="206.046,346.732 206.046,367.409 202.118,367.409 191.809,354.855 191.809,367.409 
	187.083,367.409 187.083,346.732 191.041,346.732 201.32,359.286 201.32,346.732 "/>
<path style="fill:#FFFFFF;" d="M215.232,365.371l1.625-3.604c1.742,1.27,4.341,2.156,6.822,2.156c2.836,0,3.988-0.945,3.988-2.215
	c0-3.869-12.021-1.211-12.021-8.891c0-3.515,2.835-6.439,8.713-6.439c2.599,0,5.258,0.62,7.178,1.832l-1.477,3.633
	c-1.92-1.093-3.899-1.625-5.73-1.625c-2.836,0-3.929,1.063-3.929,2.363c0,3.81,12.022,1.182,12.022,8.773
	c0,3.456-2.865,6.409-8.773,6.409C220.371,367.763,217.063,366.789,215.232,365.371"/>
<path style="fill:#FFFFFF;" d="M240.308,357.071c0-6.232,4.785-10.693,11.224-10.693c3.574,0,6.558,1.3,8.507,3.663l-3.072,2.836
	c-1.388-1.596-3.131-2.422-5.198-2.422c-3.87,0-6.617,2.717-6.617,6.616c0,3.899,2.747,6.616,6.617,6.616
	c2.067,0,3.81-0.827,5.198-2.451l3.072,2.835c-1.949,2.393-4.933,3.692-8.537,3.692
	C245.093,367.763,240.308,363.303,240.308,357.071"/>
<polygon style="fill:#FFFFFF;" points="285.174,363.569 285.174,367.409 269.165,367.409 269.165,346.732 284.79,346.732 
	284.79,350.573 273.92,350.573 273.92,355.062 283.52,355.062 283.52,358.784 273.92,358.784 273.92,363.569 "/>
<polygon style="fill:#FFFFFF;" points="313.855,346.732 313.855,367.409 309.927,367.409 299.618,354.855 299.618,367.409 
	294.892,367.409 294.892,346.732 298.85,346.732 309.129,359.286 309.129,346.732 "/>
<path style="fill:#FFFFFF;" d="M324.665,346.732h9.393c6.764,0,11.401,4.076,11.401,10.338c0,6.262-4.637,10.338-11.401,10.338
	h-9.393V346.732z M333.821,363.48c4.106,0,6.794-2.452,6.794-6.41c0-3.958-2.688-6.409-6.794-6.409h-4.371v12.819H333.821z"/>
<path style="fill:#FFFFFF;" d="M388.197,361.767c0,3.574-2.835,5.642-8.27,5.642h-10.692v-20.677h10.102
	c5.168,0,7.827,2.157,7.827,5.376c0,2.068-1.063,3.663-2.747,4.549C386.721,357.395,388.197,359.168,388.197,361.767
	 M373.99,350.336v4.874h4.755c2.334,0,3.604-0.827,3.604-2.452s-1.27-2.422-3.604-2.422H373.99z M383.383,361.265
	c0-1.743-1.329-2.57-3.81-2.57h-5.583v5.11h5.583C382.054,363.805,383.383,363.037,383.383,361.265"/>
<path style="fill:#FFFFFF;" d="M411.354,362.978h-9.599l-1.831,4.431h-4.903l9.215-20.677h4.726l9.245,20.677h-5.021
	L411.354,362.978z M409.848,359.345l-3.278-7.916l-3.279,7.916H409.848z"/>
<path style="fill:#FFFFFF;" d="M439.445,367.409l-3.988-5.76h-0.236h-4.165v5.76h-4.785v-20.676h8.95
	c5.523,0,8.979,2.865,8.979,7.503c0,3.101-1.566,5.375-4.254,6.527l4.638,6.646H439.445z M434.955,350.632h-3.899v7.207h3.899
	c2.924,0,4.401-1.359,4.401-3.603C439.356,351.961,437.879,350.632,434.955,350.632"/>
<path style="fill:#FFFFFF;" d="M467.061,367.409l-3.988-5.76h-0.236h-4.165v5.76h-4.785v-20.676h8.95
	c5.523,0,8.979,2.865,8.979,7.503c0,3.101-1.566,5.375-4.254,6.527l4.638,6.646H467.061z M462.571,350.632h-3.899v7.207h3.899
	c2.924,0,4.401-1.359,4.401-3.603C466.972,351.961,465.495,350.632,462.571,350.632"/>
<rect x="481.503" y="346.732" style="fill:#FFFFFF;" width="4.785" height="20.677"/>
<polygon style="fill:#FFFFFF;" points="513.108,363.569 513.108,367.409 497.099,367.409 497.099,346.732 512.724,346.732 
	512.724,350.573 501.854,350.573 501.854,355.062 511.454,355.062 511.454,358.784 501.854,358.784 501.854,363.569 "/>
<path style="fill:#FFFFFF;" d="M535.999,367.409l-3.988-5.76h-0.236h-4.165v5.76h-4.785v-20.676h8.95
	c5.523,0,8.979,2.865,8.979,7.503c0,3.101-1.566,5.375-4.254,6.527l4.638,6.646H535.999z M531.509,350.632h-3.899v7.207h3.899
	c2.924,0,4.401-1.359,4.401-3.603C535.91,351.961,534.433,350.632,531.509,350.632"/>
<path style="fill:#FFFFFF;" d="M548.816,365.371l1.625-3.604c1.742,1.27,4.341,2.156,6.822,2.156c2.836,0,3.988-0.945,3.988-2.215
	c0-3.869-12.021-1.211-12.021-8.891c0-3.515,2.835-6.439,8.713-6.439c2.599,0,5.258,0.62,7.178,1.832l-1.477,3.633
	c-1.92-1.093-3.899-1.625-5.73-1.625c-2.836,0-3.929,1.063-3.929,2.363c0,3.81,12.022,1.182,12.022,8.773
	c0,3.456-2.865,6.409-8.773,6.409C553.955,367.763,550.647,366.789,548.816,365.371"/>
<path style="fill:#0D4C94;" d="M370.118,112.659l0.2,3.862c0.03,0.576-0.376,1.094-0.946,1.203
	c-1.632,0.301-3.878,0.668-5.283,0.668c-7.08,0-9.236-2.71-9.236-11.579v-13.55h-2.714c-0.646,0-1.17-0.524-1.17-1.17v-4.008
	c0-0.646,0.524-1.163,1.17-1.163h2.714v-4.765c0-0.541,0.365-1.011,0.886-1.136l4.69-1.143c0.347-0.082,0.712-0.006,0.994,0.214
	c0.282,0.225,0.452,0.559,0.452,0.919v5.911h7.143c0.648,0,1.165,0.517,1.165,1.163v4.008c0,0.646-0.517,1.17-1.165,1.17h-7.143
	v12.563c0,4.346,0.152,5.852,3.201,5.852c1.123,0,2.88-0.08,3.826-0.125C369.531,111.538,370.091,112.011,370.118,112.659
	 M347.961,102.133c0,11.193-4.254,16.187-13.791,16.187c-9.583,0-13.858-4.994-13.858-16.187c0-11.031,4.275-15.95,13.858-15.95
	C343.577,86.183,347.961,91.247,347.961,102.133 M340.822,102.133c0-6.874-1.868-9.546-6.652-9.546
	c-4.958,0-6.715,2.496-6.715,9.546c0,6.39,1.068,9.847,6.715,9.847C339.729,111.98,340.822,108.37,340.822,102.133 M452.772,87.374
	c-0.216-0.286-0.557-0.452-0.922-0.452h-4.553c-0.529,0-0.987,0.355-1.128,0.865l-6.106,23.026h-0.469l-6.111-23.026
	c-0.136-0.51-0.599-0.865-1.129-0.865h-4.547c-0.364,0-0.705,0.166-0.928,0.452c-0.219,0.288-0.296,0.658-0.206,1.003l6.725,25.821
	c0.335,1.282,1.519,3.451,3.863,3.451h1.303c-0.111,0.431-0.233,0.893-0.362,1.29l-0.061,0.195c-0.364,1.19-0.912,2.991-4.235,2.991
	l-5.819-0.357c-0.328-0.026-0.65,0.093-0.879,0.328c-0.241,0.236-0.374,0.556-0.356,0.887l0.143,3.048
	c0.023,0.513,0.383,0.949,0.889,1.075c1.715,0.425,4.987,0.92,7.679,1.023c0.13,0.008,0.247,0.008,0.37,0.008
	c4.39,0,7.366-2.841,8.867-8.43c1.745-6.546,3.925-14.969,5.516-21.119c0.721-2.768,1.34-5.155,1.788-6.853l0.875-3.35
	C453.072,88.032,452.989,87.662,452.772,87.374 M316.033,116.011c0.157,0.36,0.122,0.774-0.088,1.108
	c-0.219,0.333-0.583,0.53-0.981,0.53h-5.447c-0.46,0-0.883-0.273-1.064-0.695l-6.975-15.695c-3.47-0.024-6.482-0.209-8.108-0.324
	v15.548c0,0.646-0.518,1.166-1.164,1.166h-4.87c-0.648,0-1.171-0.52-1.171-1.166V77.111c0-0.595,0.447-1.093,1.04-1.159
	c6.249-0.706,11.248-0.779,13.103-0.779c0.64,0,0.982,0.004,0.982,0.004c11.987,0,14.507,7.081,14.507,13.012
	c0,4.955-2.367,8.535-7.232,10.948L316.033,116.011z M301.265,81.935h-2.567c-2.867,0-4.501,0.214-5.328,0.381v12.138
	c1.37,0.096,4.006,0.236,7.555,0.197c4.577-0.047,7.416-2.478,7.416-6.335C308.341,85.231,306.484,81.935,301.265,81.935
	 M398.763,96.586v20.376c0,0.339-0.148,0.661-0.399,0.88c-0.26,0.223-0.6,0.323-0.929,0.276c-2.385-0.335-3.519-1.081-4.648-1.947
	c-0.047,0.019-5.323,2.149-10.036,2.149c-5.676,0-8.931-3.582-8.931-9.843c0-6.114,2.979-8.82,10.289-9.365l7.632-0.614v-1.852
	c0-2.344-1.392-3.693-3.819-3.693c-3.343,0-8.114,0.393-10.659,0.62c-0.317,0.034-0.64-0.068-0.881-0.281
	c-0.235-0.205-0.382-0.512-0.394-0.827l-0.152-3.897c-0.024-0.593,0.399-1.109,0.981-1.197c2.274-0.363,7.938-1.188,11.475-1.188
	C395.437,86.183,398.763,89.491,398.763,96.586 M384.966,104.34c-2.755,0.26-4.065,1.519-4.065,3.946c0,1.491,0.411,4.01,3.143,4.01
	c3.243,0,7.651-1.225,7.697-1.238v-7.078L384.966,104.34z M421.548,86.688c-3.101,0.185-6.154,1.957-8.056,3.307v-1.91
	c0-0.646-0.523-1.163-1.169-1.163h-4.687c-0.646,0-1.17,0.517-1.17,1.163v28.398c0,0.646,0.524,1.166,1.17,1.166h4.687
	c0.646,0,1.169-0.52,1.169-1.166V96.855c1.059-0.881,4.332-3.338,8.233-3.682c0.6-0.052,1.064-0.556,1.064-1.162V87.85
	c0-0.323-0.129-0.627-0.37-0.845C422.189,86.779,421.867,86.659,421.548,86.688"/>
<path style="fill:#FAA41A;" d="M496.863,127.663l-3.611,4.285l-1.125-0.976l3.734-4.16c-0.591-0.548-1.043-1.041-1.616-1.551
	l0.831-0.834c1.422,1.344,2.674,2.385,4.243,3.649l-0.72,0.919C498.028,128.547,497.439,128.117,496.863,127.663 M489.625,117.006
	l-5.858,3.421c0.21,0.41,0.436,0.891,0.693,1.287l5.87-3.43C490.044,117.767,489.882,117.49,489.625,117.006 M493.384,122.469
	l-3.173,2.742l1.618-4.7c-0.287-0.403-0.419-0.684-0.719-1.054l-5.688,3.859c0.255,0.382,0.566,0.735,0.836,1.13l3.42-2.37
	l-1.604,4.736c0.278,0.313,0.558,0.792,0.95,1.111l5.262-4.513C493.995,123.099,493.643,122.821,493.384,122.469 M501.105,130.874
	c0.924,0.502,1.827,1.027,2.838,1.506l0.607-1.004c-1.4-0.722-2.713-1.549-3.89-2.366l-3.862,5.667
	c1.465,0.97,2.803,1.779,4.307,2.647l0.623-1l-3.114-1.835l1.051-1.478l2.063,1.24l0.601-0.964
	c-0.663-0.364-1.353-0.784-2.076-1.226L501.105,130.874z M520.201,109.749c-5.335,0-9.693-4.378-9.693-9.701
	c0-5.362,4.358-9.717,9.693-9.717c5.371,0,9.69,4.355,9.69,9.717C529.891,105.395,525.55,109.749,520.201,109.749 M520.322,106.541
	c3.54,0,6.451-2.909,6.451-6.453c0-2.943-2.047-5.504-4.866-6.208c-0.035-0.289-0.113-1.635-0.113-1.635h-3.254
	c0,0-0.075,1.462-0.101,1.752c-2.702,0.82-4.523,3.283-4.523,6.091C513.916,103.632,516.824,106.541,520.322,106.541 M506.07,63.408
	v-0.319c-0.035-1.755,1.31-3.201,3.079-3.342c1.869-0.182,3.528,1.192,3.686,3.07v0.272c0,1.753-1.324,3.252-3.122,3.417
	C507.897,66.666,506.229,65.298,506.07,63.408 M507.313,63.287c0.091,1.208,1.162,2.089,2.324,1.99
	c1.147-0.118,2.003-1.034,2.003-2.188c0.041-0.057,0-0.123,0-0.199c-0.1-1.214-1.144-2.065-2.354-1.951
	c-1.151,0.085-2.016,0.996-1.973,2.15V63.287z M521.435,64.966c-0.57-0.006-0.833-0.006-1.391-0.006l1.691-3.508l1.534-3.187
	l1.521,0.157l0.8,3.03l1.104,4.072c-0.511-0.096-0.909-0.173-1.392-0.201l-0.394-1.276c-1.005-0.156-1.913-0.204-2.844-0.245
	L521.435,64.966z M522.564,62.656c0.74,0.035,1.427,0.117,2.121,0.216l-0.365-1.42l-0.458-1.462l-0.687,1.462L522.564,62.656z
	 M515.806,59.628l0.6,5.555l1.458-0.153l-0.571-5.513l2.206-0.136l-0.083-1.238c-2.464,0.142-3.479,0.241-5.917,0.605l0.163,1.176
	L515.806,59.628z M516.037,134.823l-0.495,4.145l-1.992-4.547c-0.467-0.091-0.758-0.211-1.228-0.286l-1.563,6.704
	c0.483,0.13,0.947,0.181,1.445,0.268l0.838-4.118l2.018,4.588c0.458,0.069,0.977,0.213,1.51,0.2l0.748-6.925
	C516.926,134.83,516.46,134.893,516.037,134.823 M555.415,120.427l-4.98-2.743l-0.637,1.148l5.976,3.335l2.303-4.127l-1.027-0.55
	L555.415,120.427z M547.906,121.43l6.781,2.227c-0.159,0.201-0.285,0.394-0.429,0.596c-0.118,0.153-0.259,0.307-0.353,0.506
	l-1.187-0.428l-1.851,2.312l0.676,1.06c-0.276,0.314-0.588,0.655-0.94,1.003l-2.685-4.453l-0.993-1.64L547.906,121.43z
	 M548.677,122.983l0.804,1.27l0.735,1.281l0.992-1.281l0.259-0.318L548.677,122.983z M541.553,132.045
	c0.289,0.508,0.43,1.096,0.454,1.696c0,0.469-0.1,0.949-0.294,1.386c-0.318,0.631-0.786,1.197-1.44,1.574
	c-1.592,0.93-3.652,0.375-4.618-1.263c-0.034-0.094-0.077-0.197-0.141-0.311c-0.194-0.437-0.288-0.917-0.329-1.386
	c0.041-1.206,0.628-2.319,1.71-2.945C538.512,129.88,540.599,130.427,541.553,132.045 M540.784,133.741
	c0-0.408-0.104-0.772-0.298-1.125c-0.565-1.052-1.905-1.391-2.949-0.792c-0.736,0.396-1.113,1.145-1.113,1.917
	c0.024,0.353,0.109,0.748,0.318,1.082c0.059,0.104,0.129,0.213,0.235,0.327c0.655,0.783,1.811,0.965,2.7,0.448
	c0.244-0.12,0.439-0.279,0.596-0.448C540.599,134.755,540.784,134.226,540.784,133.741 M544.057,125.64l2.821,3.041l-4.735-1.397
	c-0.394,0.3-0.658,0.404-1.006,0.708l4.12,5.538c0.351-0.273,0.716-0.607,1.045-0.887l-2.5-3.332l4.781,1.44
	c0.329-0.285,0.798-0.607,1.121-1.012l-4.77-5.043C544.68,124.972,544.386,125.335,544.057,125.64 M574.394,100.088
	c0,0.631-0.029,1.266-0.1,1.771l-0.018,0.137l-0.146,0.075c-2.302,1.37-5.277,2.15-8.26,2.233c-0.072,0.377-0.396,3.073-0.451,3.452
	c2.782,0.802,5.479,2.322,7.359,4.265l0.076,0.121v0.123c-0.146,1.061-0.522,2.484-0.94,3.408l-0.047,0.146l-0.135,0.022
	c-2.609,0.75-5.682,0.722-8.526,0.019c-0.135,0.352-1.186,2.857-1.292,3.221c2.491,1.575,4.695,3.74,5.934,6.051l0.065,0.129
	l-0.041,0.135c-0.388,0.92-1.117,2.251-1.769,3.05l-0.069,0.12h-0.164c-2.664,0.031-5.637-0.759-8.232-2.205
	c-0.237,0.31-1.97,2.6-2.205,2.909c2.045,2.106,3.596,4.777,4.224,7.411l0.042,0.136l-0.077,0.096
	c-0.593,0.806-1.686,1.874-2.478,2.515l-0.094,0.08l-0.195-0.038c-2.562-0.683-5.269-2.232-7.374-4.267
	c-0.312,0.235-2.461,1.914-2.78,2.152c1.375,2.519,2.211,5.417,2.211,8.037v0.364l-0.16,0.09c-0.792,0.639-2.109,1.401-3.05,1.786
	l-0.094,0.039l-0.155-0.051c-2.307-1.343-4.516-3.533-6.026-6.043c-0.364,0.16-2.979,1.279-3.336,1.436
	c0.357,1.399,0.568,2.862,0.61,4.307c0,1.461-0.253,2.921-0.61,4.24l-0.019,0.131l-0.141,0.076c-0.874,0.364-2.35,0.73-3.379,0.909
	l-0.158,0.022l-0.088-0.11c-1.986-1.889-3.507-4.576-4.306-7.383c-0.354,0.027-3.063,0.394-3.445,0.473
	c-0.047,2.944-0.855,5.929-2.256,8.242l-0.075,0.122l-0.16,0.021c-0.94,0.142-2.447,0.142-3.473,0l-0.126-0.021l-0.091-0.122
	c-1.356-2.313-2.168-5.298-2.233-8.242c-0.404-0.04-3.258-0.446-3.655-0.473c-0.78,2.79-2.315,5.462-4.248,7.373l-0.103,0.098
	l-0.16-0.023c-1.059-0.156-2.45-0.564-3.384-0.951l-0.112-0.054l-0.047-0.119c-0.395-1.315-0.598-2.79-0.598-4.251
	c0-1.432,0.203-2.866,0.567-4.265c-0.364-0.157-2.832-1.157-3.189-1.317c-1.526,2.553-3.731,4.771-6.058,6.065l-0.123,0.069
	l-0.148-0.04c-0.964-0.43-2.233-1.159-3.054-1.774l-0.1-0.1v-0.278c0-2.651,0.806-5.57,2.19-8.123
	c-0.306-0.238-2.609-1.987-2.925-2.224c-2.109,2.033-4.796,3.565-7.392,4.231l-0.133,0.041l-0.143-0.093
	c-0.793-0.64-1.814-1.671-2.456-2.481l-0.086-0.141l0.038-0.136c0.69-2.618,2.244-5.29,4.266-7.366
	c-0.233-0.314-1.975-2.572-2.221-2.911c-2.568,1.439-5.569,2.271-8.232,2.203h-0.142l-0.092-0.091
	c-0.623-0.824-1.368-2.14-1.769-3.073l-0.06-0.139l0.06-0.124c1.341-2.347,3.532-4.514,6.033-6.014
	c-0.161-0.385-1.228-2.907-1.408-3.262c-2.844,0.708-5.935,0.728-8.537,0l-0.126-0.04l-0.076-0.117
	c-0.351-0.877-0.738-2.354-0.896-3.392l-0.03-0.163l0.094-0.122c1.892-1.929,4.553-3.455,7.398-4.298
	c-0.031-0.398-0.449-3.266-0.491-3.662c-2.97-0.04-5.956-0.807-8.279-2.188l-0.117-0.076l-0.01-0.16
	c-0.065-0.482-0.084-1.112-0.084-1.75c0-0.624,0.019-1.235,0.084-1.756l0.01-0.16l0.117-0.064c2.323-1.369,5.309-2.162,8.279-2.206
	c0.062-0.392,0.415-3.18,0.46-3.556c-2.814-0.807-5.5-2.347-7.408-4.269l-0.079-0.094l0.026-0.15
	c0.124-1.071,0.528-2.504,0.926-3.394l0.044-0.129l0.139-0.039c2.57-0.758,5.676-0.736,8.532-0.036
	c0.159-0.347,1.2-2.861,1.357-3.239c-2.52-1.525-4.734-3.695-6.05-6.038l-0.066-0.149l0.066-0.14
	c0.414-0.94,1.157-2.215,1.742-3.014l0.095-0.12h0.161c2.695-0.038,5.667,0.785,8.232,2.206c0.239-0.287,1.988-2.653,2.226-2.967
	c-2.034-2.121-3.573-4.777-4.239-7.41l-0.029-0.113l0.056-0.116c0.652-0.817,1.731-1.876,2.52-2.499l0.127-0.079l0.119,0.024
	c2.648,0.678,5.319,2.253,7.399,4.276c0.302-0.241,2.385-1.846,2.694-2.08c-1.432-2.508-2.233-5.429-2.233-8.027v-0.39l0.132-0.092
	c0.78-0.61,2.101-1.368,3.044-1.751l0.1-0.063l0.157,0.068c2.319,1.313,4.502,3.508,6.027,6.021
	c0.366-0.137,3.073-1.313,3.445-1.461c-0.354-1.401-0.575-2.853-0.553-4.291c0-1.495,0.181-2.919,0.576-4.232l0.019-0.163
	l0.14-0.037c0.874-0.366,2.331-0.758,3.355-0.915l0.164-0.021l0.119,0.103c1.932,1.879,3.472,4.569,4.284,7.406
	c0.396-0.041,3.242-0.399,3.622-0.468c0.062-2.921,0.861-5.905,2.257-8.223l0.06-0.122l0.145-0.04c1.02-0.12,2.521-0.12,3.508,0
	l0.131,0.04l0.082,0.122c1.403,2.318,2.215,5.302,2.215,8.197c0.428,0.095,3.207,0.453,3.604,0.494
	c0.831-2.837,2.359-5.507,4.304-7.393l0.088-0.095l0.129,0.04c1.059,0.117,2.493,0.509,3.414,0.912l0.113,0.045l0.046,0.16
	c0.396,1.3,0.589,2.718,0.589,4.19c-0.025,1.453-0.237,2.916-0.589,4.32c0.352,0.144,3.055,1.275,3.431,1.432
	c1.498-2.513,3.655-4.692,5.999-6.021l0.135-0.068l0.141,0.063c0.929,0.394,2.229,1.141,3.028,1.769l0.119,0.074v0.364
	c0,2.663-0.826,5.573-2.218,8.053c0.299,0.234,2.532,1.98,2.867,2.237c2.104-2.043,4.777-3.606,7.411-4.253l0.118-0.065l0.116,0.123
	c0.793,0.589,1.862,1.701,2.468,2.498l0.111,0.118l-0.047,0.135c-0.67,2.634-2.256,5.307-4.277,7.398
	c0.235,0.322,1.915,2.535,2.174,2.855c2.62-1.409,5.582-2.216,8.267-2.168h0.123l0.088,0.119c0.653,0.834,1.399,2.126,1.763,3.013
	l0.088,0.171l-0.088,0.129c-1.334,2.325-3.525,4.478-6.04,6.013c0.153,0.381,1.175,2.905,1.37,3.258c2.819-0.71,5.922-0.726,8.489,0
	l0.153,0.031l0.059,0.147c0.358,0.894,0.775,2.343,0.912,3.41l0.022,0.131l-0.106,0.105c-1.886,1.954-4.571,3.483-7.394,4.281
	c0.055,0.389,0.408,3.144,0.474,3.536c2.972,0.063,5.935,0.858,8.237,2.222l0.146,0.087l0.018,0.139
	C574.365,98.829,574.394,99.438,574.394,100.088 M493.033,68.495l4.448,4.955c0.621,0.668,1.306,0.586,2.205-0.117
	c5.62-4.409,12.831-7.017,20.515-7.017c7.693,0,14.909,2.598,20.583,7.017c0.888,0.655,1.553,0.785,2.204,0.117l4.451-4.955
	c0.504-0.548,0.504-1.303-0.462-2.111c-7.46-5.809-16.669-9.394-26.793-9.394c-10.064,0-19.405,3.585-26.732,9.42
	C492.492,67.192,492.535,67.947,493.033,68.495 M493.334,89.332c-0.49-0.317-1.012-0.679-1.439-0.49
	c-0.348,0.105-0.603,0.47-0.785,1.062c-2.086,7.158-2.086,13.226,0,20.29c0.141,0.46,0.3,0.918,0.719,1.034
	c0.342,0.143,0.847,0,1.505-0.454l13.77-9.38c0.511-0.344,0.823-0.833,0.823-1.324c0-0.533-0.312-1.002-0.823-1.361L493.334,89.332z
	 M496.347,81.124c0.063,0.502,0.635,0.758,1.134,0.992l15.005,7.29c0.597,0.285,1.152,0.285,1.605,0.049
	c0.423-0.276,0.696-0.756,0.734-1.394l1.212-16.647c0.066-0.804-0.047-1.275-0.336-1.522c-0.318-0.273-0.788-0.196-1.239-0.113
	c-7.192,1.729-12.433,4.769-17.599,10.156C496.445,80.407,496.252,80.803,496.347,81.124 M496.565,119.187
	c0,0.285,0.193,0.64,0.556,1.018c5.168,5.435,10.4,8.46,17.586,10.146c0.46,0.14,0.911,0.209,1.23-0.041
	c0.325-0.242,0.417-0.742,0.363-1.528c0-0.025-1.222-16.681-1.222-16.681c-0.052-0.632-0.291-1.114-0.733-1.368
	c-0.448-0.263-1.007-0.263-1.606,0.01l-14.989,7.297c-0.523,0.244-1.09,0.518-1.168,1.009
	C496.582,119.081,496.565,119.144,496.565,119.187 M520.201,110.798c5.935,0,10.759-4.817,10.759-10.75
	c0-5.933-4.824-10.756-10.759-10.778c-5.931,0-10.751,4.845-10.751,10.778C509.45,105.981,514.27,110.798,520.201,110.798
	 M524.749,130.068c0.254,0.199,0.672,0.258,1.312,0.098c7.169-1.72,12.426-4.758,17.55-10.134c0.305-0.354,0.64-0.719,0.54-1.123
	c-0.094-0.387-0.423-0.738-1.122-1.068L528,110.548c-0.57-0.269-1.124-0.269-1.582-0.029c-0.441,0.279-0.711,0.752-0.752,1.411
	l-1.215,16.636C524.439,129.111,524.375,129.733,524.749,130.068 M547.16,110.677c0.446,0.29,0.963,0.641,1.433,0.478
	c0.319-0.097,0.594-0.447,0.77-1.077c2.104-7.132,2.104-13.223,0-20.27c-0.129-0.442-0.335-0.899-0.705-1.064
	c-0.375-0.135-0.846,0.02-1.52,0.477l-13.781,9.37c-0.533,0.358-0.805,0.847-0.805,1.353c0,0.502,0.272,0.991,0.805,1.344
	L547.16,110.677z M544.122,80.858c0.017-0.285-0.157-0.645-0.557-1.038c-5.119-5.415-10.377-8.444-17.588-10.159
	c-0.405-0.105-0.874-0.201-1.187,0.075c-0.323,0.259-0.415,0.758-0.351,1.506l1.189,16.683c0.038,0.632,0.323,1.133,0.744,1.387
	c0.463,0.262,1.017,0.214,1.591-0.063l15.025-7.251c0.482-0.234,1.03-0.489,1.134-1.002
	C544.122,80.963,544.139,80.922,544.122,80.858 M479.97,110.632l6.394-1.857c0.599-0.176,1.093-0.805,1.046-1.586
	c-2.296-11.911,0.621-21.566,7.602-29.306c0.706-0.502,0.781-1.537,0.107-2.243l-4.649-4.673c-0.451-0.517-1.272-0.517-1.977,0.202
	c-8.91,9.377-13.409,23.769-10.108,38.482C478.567,110.356,479.125,110.874,479.97,110.632 M559.464,114.054l-6.411-2.188
	c-0.335-0.125-1.21-0.125-1.669,1.003c-5.176,12.416-17.228,20.912-31.183,20.912c-13.972,0-26.245-8.692-31.2-21.106
	c-0.369-0.934-1.269-0.934-1.61-0.809l-6.375,2.188c-0.692,0.25-1.108,0.864-0.745,1.75c6.262,15.981,21.834,27.262,39.93,27.262
	c18.092,0,33.735-11.359,40.018-27.33C560.545,114.901,560.151,114.304,559.464,114.054 M552.054,71.105
	c-0.627-0.77-1.669-0.655-1.968-0.119l-4.633,4.654c-0.679,0.706-0.613,1.741,0.091,2.243c6.992,7.74,9.914,17.375,7.621,29.306
	c-0.052,0.781,0.44,1.41,1.051,1.586l6.405,1.857c0.854,0.242,1.399-0.276,1.581-1.006
	C565.498,94.938,560.985,80.498,552.054,71.105 M537.13,69.367l1.474-2.84l3.98-1.849c-0.419-0.301-0.871-0.511-1.291-0.787
	l-2.741,1.249l-0.506-2.976c-0.573-0.271-0.916-0.391-1.513-0.632l0.798,4.329l-1.476,2.806L537.13,69.367z M529.673,133.791
	c-1.984,0.435-3.512,0.796-5.48,1.102l0.182,1.143c0.728-0.115,1.394-0.201,2.162-0.298l0.993,5.507l1.462-0.276l-1.186-5.491
	c0.752-0.187,1.444-0.376,2.192-0.551L529.673,133.791z M510.171,134.755v0.372c-0.104,0.909-0.721,1.833-1.721,1.949l0.232,3.176
	c-0.464-0.106-0.989-0.26-1.484-0.47l-0.053-2.988l-1.342-0.575l-1.089,2.637c-0.44-0.145-0.88-0.286-1.31-0.498l1.379-3.208
	l0.165-0.395l1.122-2.647l3.057,1.179C509.807,133.53,510.12,134.135,510.171,134.755 M508.89,134.755
	c-0.041-0.191-0.117-0.344-0.352-0.451l-1.71-0.63l-0.386,1.081l-0.137,0.395l-0.012,0.025l1.559,0.583
	c0.427,0.19,0.84-0.191,0.989-0.608C508.89,135.036,508.935,134.893,508.89,134.755 M529.632,66.219
	c-0.546-0.159-0.95-0.226-1.551-0.398l1.107-3.777l0.81-2.693c1.168,0.291,2.278,0.67,3.389,1.031
	c0.628,0.193,0.965,0.905,1.029,1.662c0.042,1.029-0.47,2.147-1.508,2.38l0.404,3.045c-0.488-0.202-0.848-0.353-1.388-0.566
	l-0.353-2.66l-1.303-0.4L529.632,66.219z M530.568,62.656l1.526,0.492c0.417,0.12,0.97-0.534,0.97-1.104
	c0-0.271-0.094-0.512-0.459-0.592c-0.564-0.217-0.95-0.314-1.566-0.47l-0.314,1.062L530.568,62.656z M523.157,137.995l1.476,3.582
	c-0.483,0.02-0.933,0.069-1.364,0.119l-0.456-1.158l-2.952,0.082l-0.338,1.211c-0.472-0.041-0.912-0.054-1.381-0.054l1.274-3.782
	l0.906-2.868l0.044-0.091l1.506-0.068l0.076,0.182L523.157,137.995z M522.264,139.298l-0.529-1.303l-0.535-1.41l-0.464,1.41
	l-0.457,1.39L522.264,139.298z M531.289,133.215l2.258,6.446c0.439-0.153,0.911-0.286,1.356-0.48l-2.191-6.416
	C532.112,132.969,531.836,133.051,531.289,133.215 M498.523,65.238l-0.378-0.678c0.993-0.63,2.061-1.177,3.091-1.727
	c1.212-0.669,2.921,0.951,2.801,2.405c-0.022,0.257-0.094,0.489-0.245,0.725l2.478,1.803c-0.467,0.219-0.821,0.406-1.378,0.648
	l-2.171-1.586l-1.197,0.641l1.275,2.109c-0.494,0.314-0.794,0.509-1.371,0.846L498.523,65.238z M500.018,64.918l0.188,0.32
	l0.69,1.194l1.433-0.752c0.133-0.067,0.21-0.235,0.235-0.442c0.028-0.646-0.439-1.522-1.118-1.113
	C500.917,64.401,500.595,64.592,500.018,64.918"/>
<path style="fill:#FAA41A;" d="M563.029,143.592h0.423c0.607,0,0.985-0.025,1.131-0.067c0.148-0.042,0.264-0.124,0.349-0.244
	c0.077-0.118,0.126-0.253,0.126-0.392c0-0.15-0.049-0.277-0.126-0.382c-0.085-0.113-0.201-0.202-0.355-0.252
	c-0.149-0.048-0.527-0.07-1.125-0.07h-0.423V143.592z M561.978,146.53v-5.165h1.051c0.983,0,1.532,0.006,1.652,0.013
	c0.346,0.023,0.621,0.108,0.814,0.211c0.192,0.102,0.35,0.264,0.479,0.489c0.133,0.224,0.194,0.473,0.194,0.739
	c0,0.376-0.127,0.694-0.368,0.957c-0.243,0.269-0.587,0.426-1.023,0.49c0.159,0.057,0.279,0.126,0.362,0.196
	c0.086,0.074,0.196,0.206,0.35,0.404c0.035,0.044,0.165,0.253,0.383,0.62l0.61,1.046h-1.299l-0.432-0.842
	c-0.295-0.562-0.533-0.915-0.722-1.063c-0.185-0.144-0.435-0.217-0.731-0.217h-0.269v2.122H561.978z M564.187,140.017
	c-0.669,0-1.312,0.166-1.928,0.498c-0.614,0.332-1.098,0.816-1.45,1.445c-0.352,0.623-0.532,1.28-0.532,1.964
	c0,0.685,0.171,1.336,0.519,1.952c0.343,0.616,0.824,1.101,1.441,1.447c0.62,0.353,1.269,0.522,1.95,0.522
	c0.685,0,1.328-0.171,1.946-0.522c0.619-0.346,1.095-0.834,1.443-1.447c0.352-0.618,0.523-1.267,0.523-1.952
	c0-0.684-0.181-1.341-0.535-1.964c-0.353-0.629-0.834-1.113-1.448-1.445C565.501,140.183,564.854,140.017,564.187,140.017
	 M564.175,139.059c0.834,0,1.633,0.213,2.406,0.632c0.762,0.412,1.368,1.01,1.807,1.792c0.435,0.774,0.659,1.594,0.659,2.441
	c0,0.849-0.224,1.654-0.651,2.423c-0.428,0.765-1.03,1.372-1.793,1.797c-0.77,0.431-1.576,0.645-2.428,0.645
	c-0.84,0-1.65-0.211-2.419-0.645c-0.769-0.425-1.369-1.032-1.795-1.797c-0.428-0.769-0.647-1.574-0.647-2.423
	c0-0.847,0.219-1.671,0.655-2.441c0.441-0.785,1.041-1.375,1.809-1.792C562.542,139.276,563.347,139.059,564.175,139.059"/>
<path style="fill:#0D4C94;" d="M112.339,416.782l-3.852-5.564h-0.228h-4.024v5.564h-4.622v-19.974h8.646
	c5.336,0,8.674,2.768,8.674,7.247c0,2.997-1.512,5.194-4.109,6.307l4.48,6.42H112.339z M108.002,400.575h-3.767v6.962h3.767
	c2.825,0,4.251-1.313,4.251-3.482C112.253,401.859,110.827,400.575,108.002,400.575"/>
<path style="fill:#0D4C94;" d="M125.041,406.795c0-5.935,4.622-10.329,10.928-10.329c6.278,0,10.929,4.366,10.929,10.329
	c0,5.964-4.651,10.33-10.929,10.33C129.663,417.125,125.041,412.731,125.041,406.795 M142.218,406.795
	c0-3.795-2.682-6.392-6.249-6.392c-3.566,0-6.249,2.597-6.249,6.392c0,3.796,2.683,6.392,6.249,6.392
	C139.536,413.187,142.218,410.591,142.218,406.795"/>
<polygon style="fill:#0D4C94;" points="159.942,400.575 153.55,400.575 153.55,396.808 170.956,396.808 170.956,400.575 
	164.565,400.575 164.565,416.782 159.942,416.782 "/>
<path style="fill:#0D4C94;" d="M191.305,412.502h-9.273l-1.769,4.28h-4.737l8.903-19.974h4.565l8.931,19.974h-4.851L191.305,412.502
	z M189.85,408.992l-3.167-7.646l-3.167,7.646H189.85z"/>
<path style="fill:#0D4C94;" d="M218.444,416.782l-3.852-5.564h-0.228h-4.024v5.564h-4.622v-19.974h8.646
	c5.336,0,8.674,2.768,8.674,7.247c0,2.997-1.512,5.194-4.109,6.307l4.48,6.42H218.444z M214.107,400.575h-3.767v6.962h3.767
	c2.825,0,4.251-1.313,4.251-3.482C218.358,401.859,216.932,400.575,214.107,400.575"/>
<polygon style="fill:#0D4C94;" points="241.703,409.706 241.703,416.782 237.08,416.782 237.08,409.648 229.348,396.809 
	234.256,396.809 239.592,405.683 244.928,396.809 249.464,396.809 "/>
<rect x="270.899" y="396.809" style="fill:#0D4C94;" width="4.623" height="19.974"/>
<polygon style="fill:#0D4C94;" points="304.286,396.809 304.286,416.783 300.491,416.783 290.533,404.656 290.533,416.783 
	285.967,416.783 285.967,396.809 289.791,396.809 299.721,408.936 299.721,396.809 "/>
<path style="fill:#0D4C94;" d="M313.165,414.814l1.569-3.481c1.683,1.227,4.195,2.083,6.592,2.083c2.739,0,3.852-0.914,3.852-2.14
	c0-3.738-11.614-1.17-11.614-8.589c0-3.395,2.74-6.221,8.418-6.221c2.511,0,5.079,0.6,6.933,1.77l-1.426,3.51
	c-1.855-1.056-3.766-1.57-5.535-1.57c-2.74,0-3.795,1.028-3.795,2.283c0,3.68,11.613,1.141,11.613,8.474
	c0,3.339-2.768,6.193-8.475,6.193C318.13,417.126,314.934,416.183,313.165,414.814"/>
<polygon style="fill:#0D4C94;" points="342.501,400.575 336.109,400.575 336.109,396.808 353.515,396.808 353.515,400.575 
	347.123,400.575 347.123,416.782 342.501,416.782 "/>
<rect x="361.708" y="396.809" style="fill:#0D4C94;" width="4.623" height="19.974"/>
<polygon style="fill:#0D4C94;" points="380.913,400.575 374.521,400.575 374.521,396.808 391.927,396.808 391.927,400.575 
	385.535,400.575 385.535,416.782 380.913,416.782 "/>
<path style="fill:#0D4C94;" d="M399.606,407.994v-11.186h4.622v11.014c0,3.795,1.655,5.364,4.451,5.364
	c2.825,0,4.452-1.569,4.452-5.364v-11.014h4.566v11.186c0,5.878-3.367,9.131-9.046,9.131
	C402.973,417.125,399.606,413.872,399.606,407.994"/>
<polygon style="fill:#0D4C94;" points="431.769,400.575 425.377,400.575 425.377,396.808 442.783,396.808 442.783,400.575 
	436.391,400.575 436.391,416.782 431.769,416.782 "/>
<polygon style="fill:#0D4C94;" points="466.441,413.073 466.441,416.782 450.975,416.782 450.975,396.808 466.07,396.808 
	466.07,400.517 455.569,400.517 455.569,404.855 464.842,404.855 464.842,408.45 455.569,408.45 455.569,413.073 "/>
<path style="fill:#0D4C94;" d="M503.284,413.016v3.767h-15.095v-2.996l7.704-7.277c1.77-1.683,2.083-2.711,2.083-3.681
	c0-1.569-1.084-2.482-3.195-2.482c-1.712,0-3.168,0.656-4.138,1.997l-3.367-2.168c1.541-2.255,4.337-3.71,7.933-3.71
	c4.451,0,7.419,2.283,7.419,5.907c0,1.94-0.542,3.709-3.339,6.306l-4.594,4.337H503.284z"/>
<path style="fill:#0D4C94;" d="M510.848,406.795c0-6.591,3.653-10.329,8.56-10.329c4.936,0,8.56,3.738,8.56,10.329
	c0,6.592-3.624,10.33-8.56,10.33C514.501,417.125,510.848,413.387,510.848,406.795 M523.317,406.795c0-4.536-1.598-6.42-3.909-6.42
	c-2.282,0-3.881,1.884-3.881,6.42c0,4.537,1.599,6.421,3.881,6.421C521.719,413.216,523.317,411.332,523.317,406.795"/>
<path style="fill:#0D4C94;" d="M550.686,413.016v3.767h-15.095v-2.996l7.704-7.277c1.77-1.683,2.083-2.711,2.083-3.681
	c0-1.569-1.084-2.482-3.195-2.482c-1.712,0-3.168,0.656-4.138,1.997l-3.367-2.168c1.541-2.255,4.337-3.71,7.933-3.71
	c4.451,0,7.419,2.283,7.419,5.907c0,1.94-0.542,3.709-3.339,6.306l-4.594,4.337H550.686z"/>
<path style="fill:#0D4C94;" d="M573.06,410.676c0,3.367-2.597,6.449-8.275,6.449c-2.796,0-5.678-0.77-7.619-2.14l1.798-3.538
	c1.512,1.141,3.623,1.797,5.706,1.797c2.312,0,3.739-0.941,3.739-2.568c0-1.512-1.114-2.454-3.739-2.454h-2.111v-3.053l4.109-4.651
	h-8.504v-3.709h13.983v2.996l-4.509,5.136C571.234,405.512,573.06,407.738,573.06,410.676"/>
<polygon style="fill:#0D4C94;" points="229.274,450.297 229.274,454.064 211.812,454.064 211.812,451.068 222.769,437.857 
	212.04,437.857 212.04,434.09 228.846,434.09 228.846,437.086 217.918,450.297 "/>
<path style="fill:#0D4C94;" d="M236.497,444.076c0-5.935,4.622-10.329,10.928-10.329c6.278,0,10.929,4.366,10.929,10.329
	c0,5.964-4.651,10.33-10.929,10.33C241.119,454.406,236.497,450.012,236.497,444.076 M253.674,444.076
	c0-3.795-2.682-6.392-6.249-6.392c-3.566,0-6.249,2.597-6.249,6.392c0,3.796,2.683,6.392,6.249,6.392
	C250.992,450.468,253.674,447.872,253.674,444.076"/>
<polygon style="fill:#0D4C94;" points="285.865,434.09 285.865,454.064 282.07,454.064 272.112,441.937 272.112,454.064 
	267.546,454.064 267.546,434.09 271.37,434.09 281.3,446.217 281.3,434.09 "/>
<polygon style="fill:#0D4C94;" points="311.778,450.355 311.778,454.064 296.313,454.064 296.313,434.09 311.407,434.09 
	311.407,437.799 300.907,437.799 300.907,442.137 310.18,442.137 310.18,445.732 300.907,445.732 300.907,450.355 "/>
<polygon style="fill:#0D4C94;" points="351.988,449.869 348.736,449.869 348.736,454.063 344.227,454.063 344.227,449.869 
	333.47,449.869 333.47,446.759 342.886,434.09 347.737,434.09 339.005,446.102 344.37,446.102 344.37,442.364 348.736,442.364 
	348.736,446.102 351.988,446.102 "/>
<path style="fill:#0D4C94;" d="M365.032,451.495c0,0.742-0.114,1.284-0.771,2.854l-1.626,4.109h-2.825l1.256-4.537
	c-0.942-0.371-1.541-1.256-1.541-2.426c0-1.654,1.198-2.739,2.768-2.739C363.89,448.756,365.032,449.869,365.032,451.495"/>
<path style="fill:#0D4C94;" d="M387.918,447.786c0,3.538-2.596,6.62-8.303,6.62c-2.768,0-5.678-0.77-7.619-2.141l1.826-3.538
	c1.513,1.142,3.596,1.798,5.679,1.798c2.311,0,3.738-0.97,3.738-2.596c0-1.57-1.028-2.597-4.652-2.597h-5.107l1.027-11.242h12.184
	v3.709h-8.332l-0.314,3.795h1.627C385.579,441.594,387.918,444.248,387.918,447.786"/>
<path style="fill:#0D4C94;" d="M400.904,451.495c0,0.742-0.114,1.284-0.771,2.854l-1.626,4.109h-2.825l1.256-4.537
	c-0.942-0.371-1.541-1.256-1.541-2.426c0-1.654,1.198-2.739,2.768-2.739C399.762,448.756,400.904,449.869,400.904,451.495"/>
<path style="fill:#0D4C94;" d="M424.818,447.757c0,4.081-3.338,6.649-7.562,6.649c-5.506,0-8.931-3.453-8.931-9.901
	c0-6.906,4.166-10.758,10.187-10.758c2.112,0,4.166,0.485,5.564,1.37l-1.712,3.395c-1.113-0.742-2.397-0.999-3.738-0.999
	c-3.338,0-5.478,1.969-5.621,5.793c1.17-1.17,2.854-1.769,4.937-1.769C421.794,441.537,424.818,443.991,424.818,447.757
	 M420.338,447.985c0-1.826-1.341-2.996-3.396-2.996c-2.025,0-3.452,1.256-3.452,2.996c0,1.713,1.284,2.968,3.51,2.968
	C418.968,450.953,420.338,449.811,420.338,447.985"/>
<path style="fill:#0D4C94;" d="M437.889,451.495c0,0.742-0.114,1.284-0.771,2.854l-1.625,4.109h-2.826l1.255-4.537
	c-0.941-0.371-1.54-1.256-1.54-2.426c0-1.654,1.198-2.739,2.768-2.739C436.747,448.756,437.889,449.869,437.889,451.495"/>
<polygon style="fill:#0D4C94;" points="460.861,434.09 460.861,437.086 453.443,454.064 448.421,454.064 455.583,437.857 
	448.963,437.857 448.963,441.11 444.854,441.11 444.854,434.09 "/>
<rect x="-88.606" y="-165.102" style="fill:none;" width="800" height="800"/>
</svg>
